HIERARCHY
ROOT Hips
{
  OFFSET -33.9132 29.2015 117.021
  CHANNELS 6 Xposition Yposition Zposition Zrotation Xrotation Yrotation
  JOINT LeftUpLeg
  {
    OFFSET 8.64259 1.95398 -2.38835
    CHANNELS 3 Zrotation Xrotation Yrotation
    JOINT LeftLeg
    {
      OFFSET 43.7702 0 0
      CHANNELS 3 Zrotation Xrotation Yrotation
      JOINT LeftFoot
      {
        OFFSET 40.6238 0 0
        CHANNELS 3 Zrotation Xrotation Yrotation
        JOINT LeftToeBase
        {
          OFFSET 12.7242 0 0
          CHANNELS 3 Zrotation Xrotation Yrotation
          End Site
          {
            OFFSET 0 0 0
          }
        }
      }
    }
  }
  JOINT RightUpLeg
  {
    OFFSET -8.2249 1.95398 -2.59336
    CHANNELS 3 Zrotation Xrotation Yrotation
    JOINT RightLeg
    {
      OFFSET 43.5653 0 0
      CHANNELS 3 Zrotation Xrotation Yrotation
      JOINT RightFoot
      {
        OFFSET 40.6238 0 0
        CHANNELS 3 Zrotation Xrotation Yrotation
        JOINT RightToeBase
        {
          OFFSET 12.7242 0 0
          CHANNELS 3 Zrotation Xrotation Yrotation
          End Site
          {
            OFFSET 0 0 0
          }
        }
      }
    }
  }
  JOINT Spine
  {
    OFFSET 0.165834 0.87714 6.61349
    CHANNELS 3 Zrotation Xrotation Yrotation
    JOINT Spine1
    {
      OFFSET 7.38963 1.71661e-005 0
      CHANNELS 3 Zrotation Xrotation Yrotation
      JOINT Spine2
      {
        OFFSET 11.9445 1.14441e-005 0
        CHANNELS 3 Zrotation Xrotation Yrotation
        JOINT Spine3
        {
          OFFSET 14.7254 4.19617e-005 0
          CHANNELS 3 Zrotation Xrotation Yrotation
          JOINT Spine4
          {
            OFFSET 10.9679 0 0
            CHANNELS 3 Zrotation Xrotation Yrotation
            JOINT RightShoulder
            {
              OFFSET 2.46616 -1.6653 3.69651
              CHANNELS 3 Zrotation Xrotation Yrotation
              JOINT RightArm
              {
                OFFSET 13.0012 0 0
                CHANNELS 3 Zrotation Xrotation Yrotation
                JOINT RightForeArm
                {
                  OFFSET 28.7848 1.62311e-005 0
                  CHANNELS 3 Zrotation Xrotation Yrotation
                  JOINT RightHand
                  {
                    OFFSET 26.5688 1.62095e-005 0
                    CHANNELS 3 Zrotation Xrotation Yrotation
                    End Site
                    {
                      OFFSET 0 0 0
                    }
                  }
                }
              }
            }
            JOINT LeftShoulder
            {
              OFFSET 2.38034 -1.29275 -3.7523
              CHANNELS 3 Zrotation Xrotation Yrotation
              JOINT LeftArm
              {
                OFFSET 16.3182 6.07031e-005 0
                CHANNELS 3 Zrotation Xrotation Yrotation
                JOINT LeftForeArm
                {
                  OFFSET 27.0901 0 0
                  CHANNELS 3 Zrotation Xrotation Yrotation
                  JOINT LeftHand
                  {
                    OFFSET 24.5451 1.51738e-005 0
                    CHANNELS 3 Zrotation Xrotation Yrotation
                    End Site
                    {
                      OFFSET 0 0 0
                    }
                  }
                }
              }
            }
            JOINT Neck
            {
              OFFSET 5.0226 -0.0266342 0
              CHANNELS 3 Zrotation Xrotation Yrotation
              JOINT Head
              {
                OFFSET 6.69364 2.86102e-005 0
                CHANNELS 3 Zrotation Xrotation Yrotation
                End Site
                {
                  OFFSET 0 0 0
                }
              }
            }
          }
        }
      }
    }
  }
}
MOTION
Frames:	15
Frame Time:	0.0416667
-5.28996 98.9344 352.758 -144.791 -82.0223 -145.156 -173.599 -5.91181 90.7301 -9.29291 4.99712 0.220704 66.9459 4.83828 0.194295 21.9634 -5.80536 5.14783 173.95 -3.37999 88.7723 -11.1292 -11.2269 -1.52766 64.5724 -2.75125 0.0850716 26.5866 0.0307007 3.65732 0.465015 7.541 -90.3333 11.7941 0.768172 -0.746022 0.123174 0.734583 -0.779117 -22.413 0.956865 -0.480666 -2.40032 0.956851 -0.480684 92.7373 -25.4927 -102.761 54.496 2.01873 -7.24097 -5.29595 -41.9498 -5.44765 -20.4931 1.74047 -15.1564 -89.4354 -50.5834 79.6915 -25.5294 -6.41174 -15.8225 -12.4065 26.5094 -0.0170309 0.455437 0.11562 -14.1996 4.55674 -2.87799 -1.08108 -9.12037 -2.75057 1.90183 
-5.30545 98.9468 352.761 -144.59 -82.0295 -144.793 -173.318 -5.64295 91.0905 -9.84163 4.74207 0.0507951 68.8821 5.72076 -1.22334 17.233 -9.9722 7.76413 173.934 -3.52168 88.9043 -10.8268 -11.5854 -1.42096 64.469 -2.84995 -0.163842 26.47 0.210201 3.16844 0.430612 7.52374 -90.3192 11.8291 0.706245 -0.711676 0.158136 0.674247 -0.742072 -22.3778 0.887485 -0.46651 -2.36516 0.887473 -0.46652 91.9498 -26.3639 -104.121 53.9526 2.43926 -6.78817 -5.30919 -42.1434 -5.4554 -24.0211 1.90701 -14.4082 -89.084 -48.7905 79.8585 -26.0992 -5.08849 -15.1138 -13.0271 26.0441 -0.0169628 1.89661 -0.212042 -17.6636 4.08973 -2.68447 -2.40385 -8.83695 -2.40492 3.30502 
-5.39544 98.9589 352.791 -145.078 -82.3114 -145.309 -173.396 -5.43582 91.1145 -9.84606 4.77729 0.161708 68.6172 5.444 -1.46768 17.8401 -9.31988 7.25718 173.922 -3.47505 88.9331 -10.5888 -11.4137 -1.32402 64.3375 -2.79309 -0.255393 26.4939 0.139458 3.3945 0.301128 7.53588 -90.1303 11.8026 0.537638 -0.316808 0.13167 0.523179 -0.340168 -22.4043 0.60799 -0.140571 -2.39162 0.607992 -0.140576 90.2897 -28.6949 -106.686 52.5834 2.92099 -7.1994 -5.27139 -41.5895 -5.43323 -23.5514 1.87431 -14.4717 -87.6578 -45.5724 81.4232 -28.2617 -6.81355 -14.7544 -11.7529 30.8156 -0.0177456 1.85246 -0.0973561 -16.7085 3.98132 -2.40792 -3.00193 -8.5977 -1.92074 1.33738 
-5.70607 98.9555 352.798 -149.675 -82.7501 -149.922 -172.871 -5.36026 91.6946 -9.65269 6.08996 -0.288056 68.6058 5.68004 -1.40644 17.7859 -9.38213 7.3081 174.125 -3.22228 89.2597 -11.0747 -10.9311 -1.34374 64.2587 -2.60662 -0.498106 26.5552 0.213452 3.02 0.273306 7.53328 -90.1916 11.8081 0.45345 -0.430291 0.137189 0.434079 -0.449832 -22.3983 0.561801 -0.274118 -2.38567 0.561813 -0.274108 90.6552 -27.9946 -106.212 52.5624 3.00826 -6.9797 -5.27705 -41.6904 -5.43635 -20.5122 1.81092 -15.5223 -88.1446 -46.954 80.9292 -26.7179 -6.16647 -14.8487 -12.2866 30.3835 -0.0176667 0.866184 -0.00206308 -17.6309 3.696 -2.3521 -1.8344 -8.23173 -2.02981 0.51381 
-6.18888 98.9209 352.665 -152.702 -82.4198 -153.05 -172.411 -5.50859 92.1968 -10.0019 6.10305 -0.539963 68.8104 5.95125 -1.97418 17.9249 -9.15056 7.05395 174.242 -3.30989 89.4984 -11.8973 -10.6027 -1.37608 64.6013 -2.66035 -0.687165 26.4129 0.26778 3.04573 0.285161 7.60444 -90.1816 11.6658 0.482134 -0.412169 -0.00510185 0.463527 -0.433007 -22.5407 0.583713 -0.248216 -2.52809 0.583715 -0.248222 90.6078 -28.292 -106.193 51.6711 3.45033 -6.87646 -5.27816 -41.6876 -5.4372 -16.386 1.69002 -17.447 -88.0032 -47.8055 81.312 -25.993 -7.44306 -15.362 -11.7509 30.2794 -0.0176479 6.98771 -0.681975 -15.0911 2.44489 -2.85416 -1.59044 -6.98722 -2.54978 -0.399709 
-6.84517 98.8655 352.308 -152.406 -82.3196 -153.241 -172.099 -5.0767 92.3474 -10.5162 6.36731 -0.924191 68.5625 6.17557 -2.07813 18.1465 -9.43238 7.75922 174.2 -2.63274 89.4299 -13.1421 -10.7074 -1.3394 65.212 -2.83486 -0.907225 26.3348 0.374056 2.7757 0.381971 7.6395 -90.0838 11.5958 0.720617 -0.241476 -0.0749592 0.709281 -0.272955 -22.6117 0.759867 -0.0137187 -2.59908 0.75987 -0.0137228 90.2265 -28.5483 -106.868 51.6648 3.48749 -6.77625 -5.25992 -41.4181 -5.42652 -18.6 1.70867 -16.0179 -87.9418 -48.2372 81.4875 -24.5507 -6.94134 -14.6686 -12.2177 26.3521 -0.0170077 7.25161 -1.04553 -18.0595 3.13912 -2.2444 -2.03223 -8.22474 -1.9183 0.93176 
-7.82427 98.7023 351.53 -163.123 -82.6553 -164.493 -171.969 -3.7099 92.3665 -12.2336 8.11377 -0.988905 68.4154 6.6047 -1.98146 19.0869 -8.97871 7.94295 174.597 -1.55491 89.8756 -15.0297 -9.02699 -1.49915 66.0884 -2.86094 -1.33484 25.2707 0.726688 3.16615 0.401509 7.73728 -90.0468 11.4 0.777107 -0.17191 -0.270761 0.768793 -0.205957 -22.8078 0.792844 0.0696086 -2.79512 0.792843 0.0695982 90.2588 -28.0336 -107.008 51.5314 3.47209 -6.99858 -5.26882 -41.5498 -5.43153 -17.7082 1.6956 -16.5399 -88.0988 -49.5188 81.487 -23.6748 -9.96596 -14.245 -11.1366 22.9724 -0.0190053 4.36137 -0.725816 -19.0856 2.1837 -2.95958 -0.741246 -6.70556 -2.78023 -1.05613 
-9.02219 98.353 350.188 175.461 -83.4032 173.318 -172.761 0.546133 92.3008 -16.2923 10.3375 -0.39742 68.0702 6.92971 -1.40404 20.0186 -9.5312 9.89794 174.324 1.2599 89.9444 -18.249 -7.03302 -0.818228 67.5844 -3.03767 -2.01998 23.9817 1.22361 3.37647 0.455081 7.8277 -89.9541 11.2191 0.927129 0.00035241 -0.451534 0.926246 -0.0404652 -22.9892 0.884157 0.279001 -2.97654 0.884161 0.278998 90.5753 -27.4319 -106.596 51.5538 3.3785 -7.243 -5.34467 -42.6556 -5.47664 -16.5216 1.75617 -17.8089 -88.4326 -49.9352 81.0621 -19.8709 -7.02564 -12.1721 -12.257 18.1886 -0.0312815 8.16774 -1.24056 -17.6396 2.64874 -4.08801 0.931438 -5.72985 -4.07412 -4.33656 
-10.2453 97.9252 348.427 139.726 -82.7919 136.76 -173.182 6.98856 92.0897 -23.103 14.4236 -0.445624 66.5712 5.63283 -1.53629 20.3977 -9.23428 9.78452 173.497 4.61181 89.5716 -20.808 -4.08674 0.463995 68.6654 -2.85786 -2.18834 23.109 1.3438 4.22555 0.427276 7.86872 -89.8305 11.1356 0.929235 0.246943 -0.53502 0.939214 0.2058 -23.0721 0.812053 0.514817 -3.05949 0.812071 0.514826 90.6039 -27.4185 -106.542 51.4061 3.52777 -7.0025 -5.26315 -41.4666 -5.42841 -17.1186 1.84574 -17.9569 -87.834 -48.9452 81.7828 -20.0777 -9.06862 -12.5205 -11.5763 21.6004 -0.0273288 8.42142 -1.39785 -18.8447 3.72842 -6.03744 -0.793098 -3.72819 -5.78305 -3.32072 
-11.1049 97.6708 347.141 124.57 -79.8286 121.182 -172.902 10.6134 91.8906 -31.4062 13.9813 -0.495415 72.3959 8.669 -3.97209 14.2932 -18.0948 17.1304 173.158 5.71626 89.5767 -22.1565 -0.602199 1.06199 69.4786 -2.2572 -2.00994 21.7238 1.79747 4.65667 0.388723 7.98966 -89.8402 10.8938 0.847878 0.238033 -0.776873 0.857528 0.200468 -23.3136 0.737136 0.481857 -3.30099 0.737134 0.481848 90.7703 -27.2661 -106.258 50.2983 4.30554 -6.15566 -5.24885 -41.2521 -5.42006 -16.8017 1.78432 -17.7862 -88.2924 -48.0118 80.9078 -20.4261 -9.98982 -10.0207 -11.1125 18.2087 -0.0213211 7.42709 -1.25628 -18.3071 4.33547 -6.80272 -2.06801 -2.41126 -6.33865 -3.17852 
-11.5475 97.667 346.237 123.28 -77.6901 119.739 -172.681 12.1259 92.0848 -42.9791 13.6311 0.219291 68.8901 6.57537 -1.88153 20.5226 -9.06527 9.69542 172.792 5.541 89.5036 -22.6879 0.573273 1.43726 69.2513 -2.00208 -2.14615 21.7302 1.74235 4.82131 0.336689 8.00017 -89.8582 10.873 0.735879 0.213 -0.797746 0.744544 0.18039 -23.3341 0.63784 0.424313 -3.32142 0.637845 0.424321 91.2348 -27.2901 -105.284 50.2793 4.83217 -4.54585 -5.13737 -39.5427 -5.35713 -17.1006 1.73321 -17.2016 -87.7229 -47.7674 81.7363 -19.8593 -9.66113 -7.86682 -11.446 20.8755 -0.0564054 1.4445 -0.247593 -21.0536 2.85407 -6.79762 -3.263 -2.43947 -6.16941 -3.40673 
-11.5641 97.6059 345.5 124.958 -76.4068 121.63 -172.245 9.84077 93.2969 -50.018 15.9998 1.02548 66.6976 5.02594 -1.39344 20.7419 -8.78698 9.36476 172.662 4.88488 89.6042 -22.7038 1.01511 1.60897 69.2957 -2.00317 -2.28231 21.3515 1.98449 4.56436 0.163913 7.9681 -89.9134 10.9373 0.366452 0.13743 -0.733557 0.372144 0.121159 -23.269 0.308197 0.241207 -3.25632 0.308207 0.241205 91.4929 -27.6074 -104.632 50.4053 5.32816 -2.81964 -5.05445 -38.2191 -5.31225 -16.7572 1.77511 -17.7557 -87.7388 -47.4076 81.6453 -20.3025 -15.238 -4.09143 -9.01731 24.1268 -0.0324322 0.188707 0.0440709 -17.2704 2.03193 -6.21013 -3.35962 -3.61669 -5.57239 -4.22115 
-11.1456 97.5411 344.328 126.127 -75.6204 123.316 -172.04 5.1175 95.0608 -49.8059 20.4093 1.84753 65.131 4.11936 -1.00839 19.3462 -9.48712 9.09975 172.584 4.83452 89.6677 -22.6484 1.27154 1.75248 68.9171 -1.66878 -1.97886 20.1692 2.43664 4.71803 -0.0135257 7.88693 -90.0352 11.1 -0.0431569 -0.0658927 -0.570958 -0.0460269 -0.0639309 -23.1061 -0.0213624 -0.0758208 -3.09345 -0.0213692 -0.0758281 91.779 -27.6075 -104.039 50.9289 5.83208 -0.586191 -4.96015 -36.655 -5.26338 -16.6253 1.712 -17.4157 -87.9437 -48.2978 81.4959 -19.5718 -14.7469 -4.30204 -9.52215 26.0168 -0.0158197 2.00765 -0.0587699 -14.3264 0.969597 -5.93055 -4.00415 -3.82558 -5.24767 -2.55267 
-10.1867 97.3967 342.504 130.434 -74.6438 128.263 -171.255 -1.89751 96.7832 -43.1693 24.0463 2.34376 68.2651 6.06922 -2.52203 21.7008 -8.54991 9.95614 172.203 4.53807 89.2878 -22.8635 0.199897 2.0059 68.2424 -1.27268 -2.30578 19.2537 2.63407 5.2824 -0.135005 7.92423 -90.202 11.0246 -0.362315 -0.367014 -0.646409 -0.378107 -0.350723 -23.1813 -0.235266 -0.458944 -3.16861 -0.23526 -0.458937 91.9835 -27.2728 -103.731 51.6048 6.28484 1.61979 -4.94799 -36.45 -5.25708 -16.6835 1.66073 -17.0384 -88.5668 -49.2976 80.7387 -20.5894 -14.9922 -6.69547 -9.29286 27.4157 -0.12693 2.15874 -0.0747957 -14.9691 0.12067 -5.60926 -3.33596 -4.10879 -5.05198 -2.79384 
-8.87946 96.8653 338.898 129.26 -73.4431 127.661 -170.397 -6.78964 97.8695 -33.6234 29.3875 2.03399 72.2476 9.06921 -1.67005 29.6352 -3.3628 8.91689 172.387 6.9458 88.8516 -24.3439 1.26571 1.83158 66.9559 0.39616 -1.30162 18.7662 3.00233 4.81468 -0.38637 7.96526 -90.2614 10.9416 -0.890188 -0.435818 -0.729093 -0.908511 -0.396221 -23.2654 -0.718061 -0.683219 -3.25277 -0.718056 -0.683216 91.5089 -28.2795 -104.357 51.4551 6.57283 2.3577 -4.85244 -34.7957 -5.21066 -19.283 1.77485 -16.0113 -88.1597 -48.3638 81.1775 -24.1729 -14.4547 -12.6162 -9.10243 28.5471 -0.0119836 3.83065 -0.340735 -16.4007 0.176954 -4.7126 -5.72966 -4.65101 -3.85488 -0.129567 
